<?xml version="1.0" encoding="UTF-8" standalone="no"?><!DOCTYPE svg PUBLIC "-//W3C//DTD SVG 1.1//EN" "http://www.w3.org/Graphics/SVG/1.1/DTD/svg11.dtd"><svg width="100%" height="100%" viewBox="0 0 192 142" version="1.1" xmlns="http://www.w3.org/2000/svg" xmlns:xlink="http://www.w3.org/1999/xlink" xml:space="preserve" xmlns:serif="http://www.serif.com/" style="fill-rule:evenodd;clip-rule:evenodd;stroke-linejoin:round;stroke-miterlimit:2;"><g><path d="M33.333,8.333c0,-4.599 -3.734,-8.333 -8.333,-8.333l-16.667,-0c-4.599,-0 -8.333,3.734 -8.333,8.333l0,62.5c0,4.6 3.734,8.334 8.333,8.334l16.667,-0c4.599,-0 8.333,-3.734 8.333,-8.334l0,-62.5Z" style="fill:#fdcb36;"/><path d="M137.5,8.333c0,-4.599 -3.734,-8.333 -8.333,-8.333l-16.667,0c-4.599,0 -8.333,3.734 -8.333,8.333l-0,125c-0,4.6 3.734,8.334 8.333,8.334l16.667,-0c4.599,-0 8.333,-3.734 8.333,-8.334l0,-125Z" style="fill:#02849c;"/><path d="M191.667,8.333c-0,-4.599 -3.734,-8.333 -8.334,-8.333l-16.666,-0c-4.6,-0 -8.334,3.734 -8.334,8.333l0,62.5c0,4.6 3.734,8.334 8.334,8.334l16.666,-0c4.6,-0 8.334,-3.734 8.334,-8.334l-0,-62.5Z" style="fill:#e02663;"/><path d="M191.667,110.417c-0,-4.6 -3.734,-8.334 -8.334,-8.334l-16.666,0c-4.6,0 -8.334,3.734 -8.334,8.334l0,22.916c0,4.6 3.734,8.334 8.334,8.334l16.666,-0c4.6,-0 8.334,-3.734 8.334,-8.334l-0,-22.916Z" style="fill:#5d48bf;"/><path d="M83.333,66.667c0,-4.6 -3.734,-8.334 -8.333,-8.334l-16.667,0c-4.599,0 -8.333,3.734 -8.333,8.334l0,66.666c0,4.6 3.734,8.334 8.333,8.334l16.667,-0c4.599,-0 8.333,-3.734 8.333,-8.334l0,-66.666Z" style="fill:#e62463;"/><path d="M33.333,112.5c0,-4.599 -3.734,-8.333 -8.333,-8.333l-16.667,-0c-4.599,-0 -8.333,3.734 -8.333,8.333l0,20.833c0,4.6 3.734,8.334 8.333,8.334l16.667,-0c4.599,-0 8.333,-3.734 8.333,-8.334l0,-20.833Z" style="fill:#fb7d31;"/><path d="M83.333,8.333c0,-4.599 -3.734,-8.333 -8.333,-8.333l-16.667,0c-4.599,0 -8.333,3.734 -8.333,8.333l0,29.167c0,4.599 3.734,8.333 8.333,8.333l16.667,0c4.599,0 8.333,-3.734 8.333,-8.333l0,-29.167Z" style="fill:#26ae6c;"/></g></svg>